<?xml version="1.0" encoding="utf-8"?>
<!-- Generator: Adobe Illustrator 18.0.0, SVG Export Plug-In . SVG Version: 6.00 Build 0)  -->
<!DOCTYPE svg PUBLIC "-//W3C//DTD SVG 1.1//EN" "http://www.w3.org/Graphics/SVG/1.1/DTD/svg11.dtd">
<svg version="1.1" id="Layer_1" xmlns="http://www.w3.org/2000/svg" xmlns:xlink="http://www.w3.org/1999/xlink" x="0px" y="0px"
	 viewBox="0 0 64 64" enable-background="new 0 0 64 64" xml:space="preserve">
<g>
	<path fill-rule="evenodd" clip-rule="evenodd" d="M8.2,0h47.6C60.3,0,64,3.7,64,8.2v47.6c0,4.5-3.7,8.2-8.2,8.2H8.2
		C3.7,64,0,60.3,0,55.8V8.2C0,3.7,3.7,0,8.2,0L8.2,0z M46.6,7.1c-1.6,0-2.9,1.3-2.9,2.9v6.9c0,1.6,1.3,2.9,2.9,2.9h7.2
		c1.6,0,2.9-1.3,2.9-2.9V10c0-1.6-1.3-2.9-2.9-2.9H46.6L46.6,7.1z M56.8,27.1h-5.6c0.5,1.7,0.8,3.6,0.8,5.5
		c0,10.6-8.9,19.3-19.9,19.3c-11,0-19.9-8.6-19.9-19.3c0-1.9,0.3-3.8,0.8-5.5H7.1v27c0,1.4,1.1,2.5,2.5,2.5h44.6
		c1.4,0,2.5-1.1,2.5-2.5V27.1L56.8,27.1z M32.1,19.4c-7.1,0-12.9,5.6-12.9,12.5c0,6.9,5.8,12.5,12.9,12.5c7.1,0,12.9-5.6,12.9-12.5
		C44.9,25,39.2,19.4,32.1,19.4z"/>
</g>
</svg>
